/* XPM */
static char *_5d06911597d47abfd3e821605908c61vR7U4MdKyvBwKGJh[] = {
/* columns rows colors chars-per-pixel */
"32 32 2 1 ",
"  c None",
". c #C40000",
/* pixels */
"                                ",
"                                ",
"                                ",
"                                ",
"                                ",
"             .                  ",
"             ..   ..            ",
"            . .. . ..           ",
"           .   ..   ..          ",
"           ..  ...  ..          ",
"            ...  ....           ",
"        ..   ..   ..   ..       ",
"       . .. . .. .... ....      ",
"      .   ..   ...  ...  .      ",
"      .   ...  ...  ...  .      ",
"       ...  ...  .... ....      ",
"        .    ..   ..   ..       ",
"            .... ....           ",
"           ..  ...  ..          ",
"           .   ...  ..          ",
"            .... ....           ",
"       .     ..   ..            ",
"       ..                       ",
"                                ",
"                                ",
"                                ",
"                                ",
"                                ",
"                                ",
"                                ",
"                                ",
"                                "
};
