/* XPM */
static char *_a830f4997674f0699280b799fe4ae612IcsSe1efJ7JgdXC[] = {
/* columns rows colors chars-per-pixel */
"16 16 2 1 ",
"  c None",
". c #C40000",
/* pixels */
"                ",
"                ",
"      .  .      ",
"      ....      ",
"     . .. .     ",
"      .  .      ",
"   . . .. ...   ",
"   . . .. ..    ",
"      .  .  .   ",
"     . .. .     ",
"      .....     ",
"      .  .      ",
"                ",
"                ",
"                ",
"                "
};
